<svg width="19" height="20" viewBox="0 0 19 20" fill="none" xmlns="http://www.w3.org/2000/svg">
<path d="M4.125 6.06072C3.30917 6.06072 2.64917 5.34653 2.64917 4.46371C2.64917 4.04015 2.80466 3.63395 3.08143 3.33445C3.3582 3.03495 3.73359 2.86669 4.125 2.86669C4.94083 2.86669 5.60083 3.58089 5.60083 4.46371C5.60083 4.88726 5.44535 5.29347 5.16857 5.59297C4.8918 5.89247 4.51642 6.06072 4.125 6.06072ZM4.125 0C1.83333 0 0 1.98387 0 4.46371C0 7.80653 4.125 12.7563 4.125 12.7563C4.125 12.7563 8.25 7.80653 8.25 4.46371C8.25 1.98387 6.41667 0 4.125 0ZM14.2083 6.06072C13.8169 6.06072 13.4415 5.89247 13.1648 5.59297C12.888 5.29347 12.7325 4.88726 12.7325 4.46371C12.7325 4.25398 12.7707 4.04632 12.8448 3.85256C12.919 3.6588 13.0277 3.48274 13.1648 3.33445C13.3018 3.18615 13.4645 3.06852 13.6436 2.98826C13.8226 2.908 14.0145 2.86669 14.2083 2.86669C14.4021 2.86669 14.5941 2.908 14.7731 2.98826C14.9522 3.06852 15.1149 3.18615 15.2519 3.33445C15.389 3.48274 15.4977 3.6588 15.5718 3.85256C15.646 4.04632 15.6842 4.25398 15.6842 4.46371C15.6842 4.88726 15.5287 5.29347 15.2519 5.59297C14.9751 5.89247 14.5998 6.06072 14.2083 6.06072ZM14.2083 0C11.9167 0 10.0833 1.98387 10.0833 4.46371C10.0833 7.80653 14.2083 12.7563 14.2083 12.7563C14.2083 12.7563 18.3333 7.80653 18.3333 4.46371C18.3333 1.98387 16.5 0 14.2083 0ZM14.2083 13.8871C13.0442 13.8871 12.0083 14.6806 11.6233 15.871H6.71C6.4671 15.1286 5.96215 14.5206 5.30579 14.1804C4.64943 13.8401 3.89518 13.7953 3.20833 14.0557C2.86695 14.1852 2.55249 14.3861 2.28293 14.6472C2.01337 14.9082 1.794 15.2242 1.63736 15.577C1.48071 15.9298 1.38987 16.3126 1.37002 16.7035C1.35017 17.0943 1.4017 17.4855 1.52167 17.8548C1.76785 18.5992 2.27621 19.2078 2.93573 19.548C3.59525 19.8881 4.35234 19.932 5.04167 19.6701C5.82083 19.3725 6.41667 18.698 6.71 17.8548H11.6325C12.1367 19.4022 13.7133 20.2156 15.125 19.6701C15.4674 19.542 15.7831 19.3419 16.0538 19.0814C16.3246 18.8208 16.5451 18.505 16.7027 18.1519C16.8602 17.7989 16.9518 17.4157 16.9721 17.0242C16.9924 16.6328 16.941 16.2408 16.8208 15.871C16.4267 14.6806 15.3817 13.8871 14.2083 13.8871ZM14.2083 18.3508C13.8437 18.3508 13.4939 18.194 13.2361 17.915C12.9782 17.636 12.8333 17.2575 12.8333 16.8629C12.8333 16.4683 12.9782 16.0898 13.2361 15.8108C13.4939 15.5318 13.8437 15.375 14.2083 15.375C14.573 15.375 14.9227 15.5318 15.1806 15.8108C15.4385 16.0898 15.5833 16.4683 15.5833 16.8629C15.5833 17.2575 15.4385 17.636 15.1806 17.915C14.9227 18.194 14.573 18.3508 14.2083 18.3508Z" fill="#8E948B"/>
</svg>
