<svg width="19" height="20" viewBox="0 0 19 20" fill="none" xmlns="http://www.w3.org/2000/svg">
<path d="M9.16666 0C4.11217 0 0 4.44982 0 9.91935C0 15.3889 4.11217 19.8387 9.16666 19.8387C14.2212 19.8387 18.3333 15.3889 18.3333 9.91935C18.3333 4.44982 14.2212 0 9.16666 0ZM9.16666 17.8548C5.12325 17.8548 1.83333 14.2948 1.83333 9.91935C1.83333 5.54392 5.12325 1.98387 9.16666 1.98387C13.2101 1.98387 16.5 5.54392 16.5 9.91935C16.5 14.2948 13.2101 17.8548 9.16666 17.8548Z" fill="#8E948B"/>
<path d="M10.0833 4.95969H8.25V10.33L11.2686 13.5965L12.5648 12.1939L10.0833 9.5087V4.95969Z" fill="#8E948B"/>
</svg>
